<?xml version="1.0" encoding="utf-8"?>
<!-- Generator: Adobe Illustrator 16.0.0, SVG Export Plug-In . SVG Version: 6.00 Build 0)  -->
<!DOCTYPE svg PUBLIC "-//W3C//DTD SVG 1.1//EN" "http://www.w3.org/Graphics/SVG/1.1/DTD/svg11.dtd">
<svg version="1.1" id="Capa_1" xmlns="http://www.w3.org/2000/svg" xmlns:xlink="http://www.w3.org/1999/xlink" x="0px" y="0px"
	 width="20.352px" height="20.352px" viewBox="0 0 20.352 20.352" enable-background="new 0 0 20.352 20.352" xml:space="preserve">
<g>
	<path d="M19.658,0H0.693C0.31,0,0,0.311,0,0.693V19.66c0,0.383,0.311,0.691,0.692,0.691h18.966c0.383,0,0.692-0.31,0.692-0.692
		V0.693C20.351,0.311,20.041,0,19.658,0z M18.966,18.966H1.386V1.386h17.579L18.966,18.966L18.966,18.966z"/>
	<path d="M7.534,15.033c0.074,0.037,0.157,0.06,0.239,0.06c0.103,0,0.203-0.031,0.291-0.092l6.419-4.402
		c0.141-0.096,0.225-0.254,0.225-0.424s-0.084-0.328-0.225-0.424L8.065,5.35c-0.156-0.107-0.36-0.12-0.53-0.031
		C7.365,5.408,7.26,5.584,7.26,5.775v8.806C7.26,14.77,7.365,14.944,7.534,15.033z"/>
</g>
</svg>
